<?xml version="1.0" encoding="UTF-8"?>
<svg id="x" xmlns="http://www.w3.org/2000/svg" viewBox="0 0 100 100">
  <path d="m55.79,58.69c2.1,8.45,6.39,16.4,12.81,22.85,4.57,4.57,9.83,8.08,15.4,10.51,1.79.79,1.79,3.29,0,4.04-19.12,8.04-42.17,3.72-56.93-12.97-16.08-18.19-16.62-46.14-1.14-64.86C38.47,3.05,57.52-2.59,75,1.09c1.86.39,2.29,2.89.71,3.97-4.61,3.14-8.79,7.11-12.29,12.08-3.93,5.59-6.58,11.81-7.98,18.24,0,0,0-.01,0-.01,0,0-.01.04-.03.11-.27,1.24-.49,2.5-.66,3.75-.13,1.08-.23,2.32-.24,3.64-.03,2.79,2.08,4.58,3.8,6.04.46.39.89.75,1.24,1.11,1.36,1.39,1.36,3.65-.04,5l-3.74,3.67Z" fill="#fcd53f" stroke-width="0"/>
  <path d="m57.13,11.02c6.32,0,11.55-4.69,12.39-10.78-8.03-.79-16.21.34-23.79,3.41,1.96,4.34,6.33,7.37,11.41,7.37Zm-28.09,43.64c0,6.54-5.01,11.9-11.4,12.46-2.86-7.97-3.66-16.58-2.39-24.9.42-.04.85-.07,1.28-.07,6.91,0,12.51,5.6,12.51,12.51Zm26.52,42.1c5.01,0,9.08-4.06,9.08-9.08s-4.06-9.08-9.08-9.08-9.08,4.06-9.08,9.08,4.06,9.08,9.08,9.08Zm-8.86-80.41c0,3.1-2.51,5.61-5.61,5.61s-5.61-2.51-5.61-5.61,2.51-5.61,5.61-5.61,5.61,2.51,5.61,5.61Z" fill="#f9c23c" stroke-width="0"/>
  <path d="m34.83,25.14c-4.88,0-8.86,3.96-8.86,8.86,0,.99-.8,1.79-1.79,1.79s-1.79-.8-1.79-1.79c0-6.89,5.59-12.44,12.44-12.44.99,0,1.79.8,1.79,1.79s-.8,1.79-1.79,1.79Zm7.85,32.19c1.47-.2,2.82.82,3.02,2.29.25,1.8,1.8,3.15,3.6,3.15,1.48,0,2.68,1.2,2.68,2.68s-1.2,2.68-2.68,2.68c-4.5,0-8.3-3.36-8.91-7.78-.2-1.47.82-2.82,2.29-3.02Zm-9.18-16.7c.71-1.81,2.48-3.09,4.58-3.09s4.03,1.41,4.67,3.38c.46,1.41,1.98,2.17,3.38,1.71,1.41-.46,2.17-1.98,1.71-3.38-1.35-4.11-5.22-7.06-9.76-7.06s-8.07,2.66-9.57,6.49c-.54,1.38.14,2.93,1.52,3.47,1.38.54,2.93-.14,3.47-1.52Z" fill="#321b41" stroke-width="0"/>
</svg>