<?xml version="1.0" encoding="UTF-8"?>
<svg id="x" xmlns="http://www.w3.org/2000/svg" viewBox="0 0 100 100">
  <path d="m88.35,50.19c0,21.08-17.09,38.17-38.17,38.17-2.32,0-4.58-.21-6.79-.6-6.89-6.64-14.47-10.11-22.22-12.75-5.72-6.67-9.17-15.34-9.17-24.82,0-.99.04-1.97.11-2.94,6.84-12.71,21.34-29.15,34.57-35.07,1.15-.1,2.31-.16,3.49-.16,8.78,0,16.87,2.97,23.32,7.95,2.69,6.72,8.93,18.22,14.23,23.31.41,2.24.62,4.55.62,6.91Z" fill="#ff944c" stroke-width="0"/>
  <path d="m32.96,32.87c-7.61,8.12-15.95,12.51-20.84,14.32C13.56,28.67,28.21,13.86,46.66,12.18c-1.07,3.67-3.98,10.32-13.7,20.69Z" fill="#fbb8ab" stroke-width="0"/>
  <path d="m69.49,68.33c8.05-9.07,13.87-17.58,18.2-25.27-1.77-9.36-6.95-17.51-14.21-23.11-2.69,6.52-9.95,18.03-23.31,31.66-10.56,10.77-20.29,18.17-29.05,23.34,5.63,6.6,13.48,11.27,22.39,12.84,9.96-5.55,19.52-12.17,25.98-19.45Z" fill="#fbb8ab" stroke-width="0"/>
  <path d="m97.55,3.14c-1.91-2.23-4.49-2.97-6.7-3.04-2.1-.06-4.19.46-6.03,1.12-3.7,1.32-7.86,3.74-11.89,6.44-3.06,2.05-6.23,4.4-9.29,6.8,3.78,1.43,7.27,3.43,10.37,5.91,1.7-1.27,3.4-2.47,5.05-3.58,3.8-2.55,7.06-4.36,9.46-5.21.1-.03.19-.07.28-.1-.12.46-.3,1.04-.58,1.77-1.18,3.05-3.56,7.03-6.9,11.65-6.64,9.17-16.28,19.74-24.99,28.55-8.44,8.54-19.93,18.73-30.01,26.09-5.07,3.7-9.56,6.52-13,8.1-.73.34-1.37.59-1.91.78.53-1.44,1.53-3.35,3.06-5.78,1.66-2.63,3.71-5.49,5.93-8.56-2.51-3.13-4.54-6.66-5.98-10.48-.61.84-1.23,1.69-1.85,2.55l-.3.41c-2.48,3.4-5.02,6.91-7.09,10.2-2.02,3.19-3.91,6.65-4.73,9.94-.85,3.39-.82,7.99,3.12,11.22,2.49,2.04,5.49,2.13,7.62,1.84,2.21-.3,4.52-1.13,6.72-2.13,4.44-2.03,9.62-5.36,14.91-9.22,10.63-7.77,22.57-18.36,31.34-27.24,8.85-8.95,18.95-19.99,26.07-29.83,3.53-4.88,6.55-9.76,8.25-14.12,1.5-3.86,2.87-9.69-.92-14.09ZM10.98,90.14s0,.05,0,.05c0,0,0-.01,0-.05Z" fill="#fcd53f" stroke-width="0"/>
</svg>